<?xml version="1.0" encoding="UTF-8"?>
<svg id="Layer_2" data-name="Layer 2" xmlns="http://www.w3.org/2000/svg" viewBox="0 0 37.45 38.22">
  <g id="Layer_1-2" data-name="Layer 1">
    <path d="M19.36,38.22c-5.12,0-9.94-1.97-13.59-5.57C2.09,29.02,.04,24.17,0,19-.07,9.94,6.02,2.14,14.8,.03c.44-.1,.9,.1,1.11,.49,.22,.4,.14,.89-.19,1.2-3.04,2.9-4.76,6.98-4.73,11.19,.06,8.45,7.01,15.24,15.45,15.21,3.44-.03,6.69-1.17,9.39-3.31,.35-.28,.85-.29,1.22-.02,.36,.27,.5,.75,.33,1.17-2.9,7.38-9.92,12.19-17.86,12.25-.05,0-.1,0-.15,0ZM11.94,3.14C5.9,5.96,1.95,12.06,2,18.98c.04,4.64,1.88,8.99,5.18,12.25,3.3,3.25,7.71,5.01,12.32,4.99,5.92-.04,11.26-3.03,14.39-7.83-2.3,1.12-4.82,1.72-7.44,1.74h-.13c-9.5,0-17.26-7.69-17.33-17.2-.03-3.5,1.02-6.92,2.94-9.79Z"/>
  </g>
</svg>