<?xml version="1.0" encoding="UTF-8"?>
<svg id="Layer_2" data-name="Layer 2" xmlns="http://www.w3.org/2000/svg" viewBox="0 0 49.88 49.88">
  <defs>
    <style>
      .cls-1 {
        fill: #fff;
      }
    </style>
  </defs>
  <g id="Layer_1-2" data-name="Layer 1">
    <g>
      <path class="cls-1" d="M24.94,35.94c-6.07,0-11-4.93-11-11s4.93-11,11-11,11,4.93,11,11-4.93,11-11,11Zm0-20c-4.96,0-9,4.04-9,9s4.04,9,9,9,9-4.04,9-9-4.04-9-9-9Z"/>
      <path class="cls-1" d="M24.94,11.96c-.55,0-1-.45-1-1V1c0-.55,.45-1,1-1s1,.45,1,1V10.96c0,.55-.45,1-1,1Z"/>
      <path class="cls-1" d="M15.05,16.05c-.26,0-.51-.1-.71-.29l-7.04-7.04c-.39-.39-.39-1.02,0-1.41s1.02-.39,1.41,0l7.04,7.04c.39,.39,.39,1.02,0,1.41-.2,.2-.45,.29-.71,.29Z"/>
      <path class="cls-1" d="M10.96,25.94H1c-.55,0-1-.45-1-1s.45-1,1-1H10.96c.55,0,1,.45,1,1s-.45,1-1,1Z"/>
      <path class="cls-1" d="M8.01,42.87c-.26,0-.51-.1-.71-.29-.39-.39-.39-1.02,0-1.41l7.04-7.04c.39-.39,1.02-.39,1.41,0s.39,1.02,0,1.41l-7.04,7.04c-.2,.2-.45,.29-.71,.29Z"/>
      <path class="cls-1" d="M24.94,49.88c-.55,0-1-.45-1-1v-9.96c0-.55,.45-1,1-1s1,.45,1,1v9.96c0,.55-.45,1-1,1Z"/>
      <path class="cls-1" d="M41.87,42.87c-.26,0-.51-.1-.71-.29l-7.04-7.04c-.39-.39-.39-1.02,0-1.41s1.02-.39,1.41,0l7.04,7.04c.39,.39,.39,1.02,0,1.41-.2,.2-.45,.29-.71,.29Z"/>
      <path class="cls-1" d="M48.88,25.94h-9.96c-.55,0-1-.45-1-1s.45-1,1-1h9.96c.55,0,1,.45,1,1s-.45,1-1,1Z"/>
      <path class="cls-1" d="M34.83,16.05c-.26,0-.51-.1-.71-.29-.39-.39-.39-1.02,0-1.41l7.04-7.04c.39-.39,1.02-.39,1.41,0s.39,1.02,0,1.41l-7.04,7.04c-.2,.2-.45,.29-.71,.29Z"/>
    </g>
  </g>
</svg>